<svg xmlns="http://www.w3.org/2000/svg" width="22.645" height="21.15" viewBox="0 0 22.645 21.15">
  <g id="Logo_Exprivia" data-name="Logo Exprivia" transform="translate(0 0)">
    <path id="Path_11" data-name="Path 11" d="M104.8,26.971c.481.127.644,0,.562-.435-.907-5.332,1.215-15.488,7.046-20.04.49-.408.725-.825-.308-.526-7.608,1.968-16.05,18.607-7.254,21.01" transform="translate(-90.18 -5.868)" fill="#e85212"/>
    <path id="Path_12" data-name="Path 12" d="M99.252,18.2c-2.82-4.5-10.12-4.2-10.138-4.2s-.118.054,0,.082a18.136,18.136,0,0,1,9.521,6.937,14.1,14.1,0,0,1,.644-2.811" transform="translate(-89.058 -6.625)" fill="#e85212"/>
  </g>
</svg>
